<?xml version="1.0" encoding="utf-8"?>
<!-- Generator: Adobe Illustrator 15.1.0, SVG Export Plug-In  -->
<!DOCTYPE svg PUBLIC "-//W3C//DTD SVG 1.1//EN" "http://www.w3.org/Graphics/SVG/1.1/DTD/svg11.dtd" [
	<!ENTITY ns_flows "http://ns.adobe.com/Flows/1.0/">
]>
<svg version="1.1"
	 xmlns="http://www.w3.org/2000/svg" xmlns:xlink="http://www.w3.org/1999/xlink" xmlns:a="http://ns.adobe.com/AdobeSVGViewerExtensions/3.0/"
	 x="0px" y="0px" width="268px" height="134px" viewBox="-9.637 -8.929 268 134"
	 overflow="visible" enable-background="new -9.637 -8.929 268 134" xml:space="preserve">
<defs>
</defs>
<path d="M60.928,76.16h16.185v12.375H60.928v25.704H47.6V88.535H0V73.78L44.585,1.903h16.342V76.16z M47.6,17.453h-0.317
	L11.424,76.16H47.6V17.453z"/>
<path d="M88.694,58.072c0-6.348,0.528-12.957,1.587-19.833c1.056-6.875,3.015-13.143,5.871-18.802
	c2.855-5.658,6.743-10.314,11.662-13.963C112.732,1.824,119.052,0,126.774,0c7.72,0,14.043,1.824,18.961,5.474
	c4.919,3.649,8.807,8.305,11.662,13.963c2.855,5.66,4.812,11.928,5.871,18.802c1.056,6.877,1.586,13.486,1.586,19.833
	c0,6.347-0.53,12.958-1.586,19.833c-1.059,6.877-3.016,13.144-5.871,18.802c-2.855,5.66-6.743,10.313-11.662,13.963
	c-4.918,3.649-11.241,5.474-18.961,5.474c-7.722,0-14.042-1.824-18.96-5.474c-4.918-3.649-8.806-8.303-11.662-13.963
	c-2.856-5.658-4.815-11.925-5.871-18.802C89.222,71.03,88.694,64.419,88.694,58.072z M102.022,58.072
	c0,2.751,0.104,5.818,0.317,9.202c0.21,3.386,0.607,6.798,1.189,10.234c0.581,3.438,1.429,6.798,2.54,10.074
	c1.11,3.281,2.59,6.188,4.443,8.727c1.849,2.54,4.098,4.578,6.742,6.11c2.643,1.534,5.817,2.3,9.521,2.3
	c3.702,0,6.875-0.766,9.521-2.3c2.643-1.532,4.892-3.57,6.743-6.11c1.85-2.538,3.332-5.445,4.442-8.727
	c1.11-3.276,1.957-6.636,2.539-10.074c0.58-3.437,0.977-6.849,1.189-10.234c0.211-3.384,0.317-6.451,0.317-9.202
	c0-2.75-0.106-5.817-0.317-9.204c-0.213-3.384-0.609-6.795-1.189-10.234c-0.582-3.436-1.429-6.795-2.539-10.075
	c-1.11-3.278-2.593-6.188-4.442-8.727c-1.852-2.54-4.101-4.574-6.743-6.109c-2.646-1.532-5.818-2.3-9.521-2.3
	c-3.703,0-6.877,0.768-9.521,2.3c-2.645,1.535-4.894,3.569-6.742,6.109c-1.853,2.538-3.333,5.449-4.443,8.727
	c-1.11,3.28-1.958,6.639-2.54,10.075c-0.582,3.439-0.979,6.85-1.189,10.234C102.126,52.255,102.022,55.322,102.022,58.072z"/>
<path d="M237.366,76.16h16.184v12.375h-16.184v25.704h-13.328V88.535h-47.601V73.78l44.586-71.877h16.343V76.16z M224.038,17.453
	h-0.317L187.862,76.16h36.176V17.453z"/>
</svg>
