<?xml version="1.0" encoding="utf-8"?>
<!-- Generator: Adobe Illustrator 15.1.0, SVG Export Plug-In  -->
<!DOCTYPE svg PUBLIC "-//W3C//DTD SVG 1.1//EN" "http://www.w3.org/Graphics/SVG/1.1/DTD/svg11.dtd" [
	<!ENTITY ns_flows "http://ns.adobe.com/Flows/1.0/">
]>
<svg version="1.1"
	 xmlns="http://www.w3.org/2000/svg" xmlns:xlink="http://www.w3.org/1999/xlink" xmlns:a="http://ns.adobe.com/AdobeSVGViewerExtensions/3.0/"
	 x="0px" y="0px" width="792px" height="612px" viewBox="-34.736 -23.861 792 612"
	 overflow="visible" enable-background="new -34.736 -23.861 792 612" xml:space="preserve">
<defs>
</defs>
<path fill="#FFFFFF" d="M199.097,179.614c0,15.154-3.904,28.77-11.707,40.845c-7.805,12.078-19.226,21.533-34.265,28.369
	s-32.871,10.254-53.491,10.254c-24.724,0-45.117-4.67-61.182-14.014c-11.394-6.721-20.652-15.693-27.771-26.917
	C3.56,206.931,0,196.021,0,185.425c0-6.152,2.136-11.421,6.409-15.808c4.272-4.385,9.712-6.58,16.321-6.58
	c5.354,0,9.883,1.709,13.586,5.127c3.701,3.418,6.863,8.489,9.485,15.21c3.188,7.976,6.636,14.641,10.339,19.995
	c3.701,5.356,8.914,9.771,15.637,13.245c6.721,3.477,15.552,5.212,26.489,5.212c15.039,0,27.258-3.503,36.658-10.51
	s14.099-15.75,14.099-26.233c0-8.315-2.537-15.066-7.605-20.251c-5.071-5.183-11.621-9.143-19.653-11.877s-18.772-5.64-32.214-8.716
	c-18.003-4.214-33.069-9.143-45.203-14.783s-21.763-13.33-28.882-23.071C8.345,96.643,4.785,84.539,4.785,70.068
	c0-13.784,3.76-26.033,11.279-36.743c7.52-10.708,18.398-18.94,32.642-24.695C62.947,2.878,79.695,0,98.95,0
	c15.381,0,28.682,1.909,39.905,5.725c11.221,3.818,20.535,8.887,27.942,15.21c7.405,6.323,12.817,12.961,16.235,19.91
	c3.418,6.951,5.127,13.73,5.127,20.337c0,6.04-2.136,11.479-6.409,16.321c-4.272,4.844-9.6,7.263-15.979,7.263
	c-5.811,0-10.227-1.453-13.245-4.358c-3.02-2.905-6.296-7.661-9.827-14.27c-4.558-9.456-10.027-16.833-16.406-22.131
	c-6.382-5.298-16.636-7.947-30.762-7.947c-13.103,0-23.669,2.878-31.702,8.63c-8.032,5.754-12.048,12.676-12.048,20.764
	c0,5.015,1.367,9.343,4.102,12.988c2.734,3.647,6.494,6.78,11.279,9.399c4.785,2.622,9.626,4.673,14.526,6.152
	c4.897,1.482,12.988,3.647,24.268,6.494c14.126,3.306,26.917,6.951,38.367,10.938c11.45,3.989,21.191,8.831,29.224,14.526
	c8.032,5.698,14.297,12.903,18.799,21.619C196.846,156.287,199.097,166.968,199.097,179.614z"/>
<path fill="#FFFFFF" d="M256.585,245.188c-0.161-1.519-0.281-3.199-0.36-5.04c-0.081-1.839-0.12-3.36-0.12-4.56h-0.24
	c-1.601,3.281-4.2,5.94-7.8,7.98s-7.401,3.06-11.4,3.06c-7.122,0-12.461-2.119-16.02-6.36c-3.561-4.239-5.34-9.84-5.34-16.8v-34.44
	h8.16v31.08c0,2.961,0.24,5.64,0.72,8.04s1.299,4.46,2.46,6.18c1.159,1.721,2.719,3.06,4.68,4.02c1.959,0.96,4.419,1.44,7.38,1.44
	c2.16,0,4.26-0.439,6.3-1.32c2.04-0.879,3.859-2.22,5.46-4.02c1.6-1.8,2.88-4.08,3.84-6.84c0.96-2.76,1.44-6.019,1.44-9.78v-28.8
	h8.16v43.8c0,1.521,0.04,3.48,0.12,5.88c0.079,2.4,0.199,4.56,0.36,6.48H256.585z"/>
<path fill="#FFFFFF" d="M293.905,235.708v9.48h-8.16v-90.72h8.16v44.28h0.24c2.4-3.679,5.52-6.459,9.36-8.34
	c3.84-1.879,7.8-2.82,11.88-2.82c4.398,0,8.379,0.761,11.94,2.28c3.559,1.521,6.6,3.6,9.12,6.24c2.52,2.64,4.479,5.76,5.88,9.36
	c1.398,3.6,2.1,7.481,2.1,11.64c0,4.161-0.702,8.04-2.1,11.64c-1.401,3.6-3.36,6.72-5.88,9.36c-2.52,2.64-5.562,4.721-9.12,6.24
	c-3.561,1.519-7.542,2.28-11.94,2.28c-4.08,0-8.04-0.92-11.88-2.76c-3.84-1.839-6.96-4.56-9.36-8.16H293.905z M335.785,217.107
	c0-3.12-0.48-6.06-1.44-8.82c-0.96-2.76-2.34-5.16-4.14-7.2s-4.02-3.66-6.66-4.86c-2.64-1.2-5.64-1.8-9-1.8
	c-3.12,0-6,0.581-8.64,1.74c-2.64,1.161-4.92,2.76-6.84,4.8c-1.92,2.04-3.42,4.44-4.5,7.2c-1.08,2.76-1.62,5.741-1.62,8.94
	c0,3.201,0.54,6.18,1.62,8.94c1.08,2.76,2.58,5.142,4.5,7.14c1.92,2,4.2,3.581,6.84,4.74c2.64,1.16,5.52,1.74,8.64,1.74
	c3.36,0,6.36-0.58,9-1.74c2.64-1.159,4.86-2.76,6.66-4.8s3.18-4.44,4.14-7.2C335.305,223.167,335.785,220.228,335.785,217.107z"/>
<path fill="#FFFFFF" d="M370.344,245.188h-8.16v-90.72h8.16V245.188z"/>
<path fill="#FFFFFF" d="M402.143,167.428c0,1.68-0.6,3.06-1.799,4.14c-1.201,1.08-2.521,1.62-3.961,1.62
	c-1.439,0-2.76-0.54-3.959-1.62c-1.201-1.08-1.801-2.46-1.801-4.14c0-1.68,0.6-3.06,1.801-4.14c1.199-1.08,2.52-1.62,3.959-1.62
	c1.44,0,2.76,0.54,3.961,1.62C401.543,164.368,402.143,165.748,402.143,167.428z M400.463,245.188h-8.16v-56.16h8.16V245.188z"/>
<path fill="#FFFFFF" d="M437.604,190.647c3.318-2.04,7.02-3.06,11.1-3.06c1.52,0,3.1,0.161,4.74,0.48
	c1.639,0.321,3.24,0.941,4.801,1.86c1.559,0.92,3,2.141,4.318,3.66c1.32,1.521,2.461,3.48,3.42,5.88
	c1.92-3.84,4.541-6.78,7.861-8.82c3.318-2.04,7.26-3.06,11.82-3.06c7.119,0,12.459,2.121,16.02,6.36
	c3.559,4.242,5.34,9.84,5.34,16.8v34.44h-8.16v-31.08c0-5.919-1.102-10.68-3.301-14.28c-2.201-3.6-5.939-5.4-11.219-5.4
	c-2.961,0-5.461,0.6-7.5,1.8c-2.041,1.2-3.682,2.781-4.92,4.74c-1.242,1.961-2.143,4.182-2.701,6.66
	c-0.561,2.48-0.84,5.04-0.84,7.68v29.88h-8.16v-32.76c0-2.719-0.199-5.2-0.6-7.44c-0.4-2.239-1.1-4.14-2.1-5.7
	c-1.002-1.56-2.381-2.76-4.141-3.6s-4.001-1.26-6.72-1.26c-1.92,0-3.86,0.44-5.819,1.32c-1.962,0.881-3.721,2.22-5.28,4.02
	c-1.56,1.8-2.82,4.08-3.78,6.84c-0.96,2.76-1.439,6.021-1.439,9.78v28.8h-8.16v-43.8c0-1.519-0.041-3.48-0.12-5.88
	c-0.081-2.4-0.2-4.56-0.36-6.48h7.801c0.158,1.521,0.279,3.201,0.359,5.04c0.078,1.841,0.12,3.36,0.12,4.56h0.239
	C431.823,195.348,434.284,192.688,437.604,190.647z"/>
<path fill="#FFFFFF" d="M579.263,215.428c0,0.561,0,1.16,0,1.8c0,0.641-0.041,1.32-0.12,2.04h-46.56
	c0.078,2.801,0.639,5.441,1.68,7.92c1.039,2.48,2.479,4.641,4.32,6.48c1.839,1.841,3.999,3.3,6.479,4.38
	c2.479,1.08,5.16,1.62,8.04,1.62c4.239,0,7.899-0.979,10.98-2.94c3.078-1.959,5.419-4.219,7.02-6.78l6.12,4.8
	c-3.36,4.241-7.062,7.281-11.1,9.12c-4.041,1.839-8.382,2.76-13.021,2.76c-4.16,0-8.021-0.741-11.58-2.22
	c-3.561-1.479-6.62-3.54-9.18-6.18c-2.562-2.64-4.581-5.76-6.06-9.36c-1.481-3.6-2.221-7.519-2.221-11.76
	c0-4.239,0.721-8.16,2.16-11.76c1.44-3.6,3.438-6.72,6-9.36c2.56-2.64,5.56-4.699,9-6.18c3.438-1.479,7.159-2.22,11.16-2.22
	c4.398,0,8.28,0.741,11.64,2.22c3.36,1.481,6.16,3.48,8.4,6c2.238,2.52,3.939,5.46,5.1,8.82
	C578.682,207.987,579.263,211.587,579.263,215.428z M570.983,212.788c-0.239-5.28-1.94-9.66-5.1-13.14
	c-3.161-3.48-7.661-5.22-13.5-5.22c-2.721,0-5.24,0.5-7.56,1.5c-2.321,1.001-4.361,2.36-6.12,4.08
	c-1.761,1.721-3.161,3.681-4.2,5.88c-1.041,2.201-1.641,4.5-1.8,6.9H570.983z"/>
<path fill="#FFFFFF" d="M284.039,461.743c0,15.154-3.904,28.77-11.707,40.846c-7.805,12.077-19.226,21.533-34.265,28.369
	s-32.871,10.254-53.491,10.254c-24.724,0-45.117-4.671-61.182-14.014c-11.394-6.722-20.652-15.693-27.771-26.917
	c-7.122-11.221-10.681-22.132-10.681-32.728c0-6.152,2.136-11.42,6.409-15.808c4.272-4.385,9.712-6.579,16.321-6.579
	c5.354,0,9.883,1.709,13.586,5.127c3.701,3.418,6.863,8.488,9.485,15.209c3.188,7.977,6.636,14.642,10.339,19.996
	c3.701,5.355,8.914,9.77,15.637,13.244c6.721,3.477,15.552,5.213,26.489,5.213c15.039,0,27.258-3.504,36.658-10.511
	s14.099-15.749,14.099-26.233c0-8.314-2.537-15.065-7.605-20.251c-5.071-5.183-11.621-9.144-19.653-11.878
	s-18.772-5.639-32.214-8.715c-18.003-4.215-33.069-9.144-45.203-14.783s-21.763-13.33-28.882-23.071
	c-7.122-9.741-10.681-21.846-10.681-36.315c0-13.785,3.76-26.033,11.279-36.744c7.52-10.707,18.398-18.939,32.642-24.694
	c14.241-5.752,30.989-8.63,50.244-8.63c15.381,0,28.682,1.909,39.905,5.725c11.221,3.818,20.535,8.887,27.942,15.21
	c7.405,6.323,12.817,12.962,16.235,19.909c3.418,6.951,5.127,13.73,5.127,20.338c0,6.039-2.136,11.479-6.409,16.32
	c-4.272,4.844-9.6,7.264-15.979,7.264c-5.811,0-10.227-1.453-13.245-4.358c-3.02-2.905-6.296-7.661-9.827-14.271
	c-4.558-9.455-10.027-16.833-16.406-22.131c-6.382-5.298-16.636-7.947-30.762-7.947c-13.103,0-23.669,2.879-31.702,8.631
	c-8.032,5.754-12.048,12.676-12.048,20.764c0,5.016,1.367,9.344,4.102,12.988c2.734,3.648,6.494,6.78,11.279,9.4
	c4.785,2.621,9.626,4.672,14.526,6.152c4.897,1.481,12.988,3.646,24.268,6.494c14.126,3.305,26.917,6.95,38.367,10.938
	c11.45,3.988,21.191,8.83,29.224,14.525c8.032,5.699,14.297,12.903,18.799,21.619C281.788,438.416,284.039,449.096,284.039,461.743z
	"/>
<path fill="#FFFFFF" d="M321.128,503.428h0.24l17.4-47.4h8.88l-27.96,70.68c-1.68,4.32-3.821,7.779-6.42,10.381
	c-2.601,2.598-6.341,3.898-11.22,3.898c-2.48,0-4.92-0.24-7.32-0.719l0.84-7.441c1.92,0.641,3.918,0.961,6,0.961
	c2.799,0,4.999-0.861,6.6-2.58c1.599-1.721,3-4.182,4.2-7.38l4.56-11.761l-24-56.039h9.12L321.128,503.428z"/>
<path fill="#FFFFFF" d="M367.687,456.028c0.159,1.521,0.279,3.2,0.36,5.039c0.078,1.842,0.119,3.361,0.119,4.561h0.24
	c1.6-3.279,4.2-5.939,7.801-7.98c3.6-2.039,7.398-3.06,11.399-3.06c7.119,0,12.46,2.12,16.021,6.36c3.559,4.241,5.34,9.84,5.34,16.8
	v34.44h-8.16v-31.08c0-2.959-0.24-5.641-0.721-8.041c-0.479-2.399-1.301-4.458-2.459-6.18c-1.161-1.719-2.721-3.06-4.681-4.02
	c-1.961-0.96-4.421-1.439-7.38-1.439c-2.16,0-4.26,0.439-6.3,1.319c-2.04,0.882-3.86,2.22-5.46,4.021
	c-1.602,1.799-2.881,4.08-3.84,6.84c-0.961,2.76-1.44,6.02-1.44,9.779v28.801h-8.16v-43.801c0-1.519-0.041-3.479-0.12-5.88
	c-0.081-2.399-0.201-4.56-0.36-6.479H367.687z"/>
<path fill="#FFFFFF" d="M455.407,462.868h-15.841v32.76c0,2.082,0.198,3.801,0.601,5.16c0.398,1.361,0.979,2.42,1.74,3.18
	c0.759,0.762,1.658,1.281,2.699,1.561c1.039,0.281,2.16,0.42,3.36,0.42c1.119,0,2.298-0.16,3.54-0.48
	c1.239-0.318,2.418-0.76,3.539-1.32l0.361,7.08c-1.44,0.561-2.94,0.979-4.5,1.26c-1.561,0.28-3.262,0.421-5.101,0.421
	c-1.521,0-3.12-0.2-4.8-0.601c-1.68-0.398-3.24-1.158-4.68-2.279c-1.44-1.119-2.621-2.641-3.541-4.561s-1.379-4.439-1.379-7.56
	v-35.04h-11.641v-6.84h11.641v-15.84h8.159v15.84h15.841V462.868z"/>
<path fill="#FFFFFF" d="M476.764,465.268c1.52-3.279,4.039-5.881,7.561-7.801c3.52-1.92,7.279-2.88,11.279-2.88
	c7.12,0,12.46,2.12,16.021,6.36c3.56,4.241,5.341,9.84,5.341,16.8v34.44h-8.16v-31.08c0-2.959-0.24-5.641-0.721-8.041
	c-0.48-2.399-1.301-4.458-2.46-6.18c-1.161-1.719-2.72-3.06-4.68-4.02c-1.962-0.96-4.421-1.439-7.38-1.439
	c-2.16,0-4.26,0.439-6.301,1.319c-2.039,0.882-3.859,2.22-5.459,4.021c-1.602,1.799-2.881,4.08-3.84,6.84
	c-0.961,2.76-1.44,6.02-1.44,9.779v28.801h-8.16v-90.721h8.16v43.801H476.764z"/>
<path fill="#FFFFFF" d="M589.204,482.428c0,0.561,0,1.16,0,1.799c0,0.642-0.041,1.32-0.12,2.041h-46.56
	c0.078,2.801,0.639,5.441,1.68,7.92c1.039,2.48,2.479,4.641,4.32,6.479c1.839,1.841,3.999,3.3,6.479,4.38
	c2.479,1.08,5.16,1.62,8.04,1.62c4.239,0,7.899-0.979,10.98-2.94c3.078-1.959,5.419-4.219,7.02-6.779l6.12,4.8
	c-3.36,4.241-7.062,7.28-11.1,9.12c-4.041,1.84-8.382,2.76-13.021,2.76c-4.16,0-8.021-0.74-11.58-2.22
	c-3.561-1.479-6.62-3.54-9.18-6.181c-2.562-2.64-4.581-5.76-6.06-9.359c-1.481-3.6-2.22-7.52-2.22-11.76s0.719-8.16,2.159-11.76
	c1.44-3.601,3.438-6.721,6-9.361c2.56-2.639,5.56-4.698,9-6.18c3.438-1.479,7.159-2.22,11.16-2.22c4.398,0,8.28,0.741,11.64,2.22
	c3.36,1.481,6.16,3.48,8.4,6c2.238,2.521,3.939,5.461,5.1,8.82C588.623,474.987,589.204,478.587,589.204,482.428z M580.923,479.788
	c-0.239-5.28-1.94-9.66-5.1-13.141c-3.161-3.479-7.661-5.219-13.5-5.219c-2.721,0-5.24,0.5-7.56,1.5
	c-2.321,1-4.361,2.359-6.12,4.079c-1.761,1.722-3.161,3.681-4.2,5.88c-1.041,2.201-1.641,4.5-1.8,6.9H580.923z"/>
<path fill="#FFFFFF" d="M636.602,469.348c-1.199-2.32-3.021-4.219-5.46-5.701c-2.441-1.479-5.22-2.219-8.34-2.219
	c-1.439,0-2.88,0.16-4.32,0.479c-1.439,0.32-2.72,0.84-3.84,1.56c-1.121,0.721-2.021,1.641-2.7,2.76
	c-0.68,1.121-1.02,2.441-1.02,3.961c0,2.64,1.08,4.66,3.24,6.06c2.16,1.4,5.56,2.58,10.2,3.54
	c6.639,1.361,11.538,3.342,14.699,5.939c3.16,2.602,4.74,6.102,4.74,10.5c0,3.201-0.62,5.9-1.86,8.101
	c-1.241,2.201-2.86,4.001-4.859,5.399c-2.001,1.4-4.26,2.4-6.78,3c-2.52,0.601-5.061,0.9-7.62,0.9c-4.241,0-8.36-0.881-12.359-2.641
	c-4.002-1.758-7.281-4.518-9.841-8.279l6.48-4.8c1.44,2.48,3.559,4.56,6.36,6.239c2.799,1.681,5.88,2.521,9.239,2.521
	c1.759,0,3.439-0.159,5.04-0.479c1.6-0.319,3-0.88,4.2-1.681c1.2-0.798,2.16-1.818,2.88-3.06c0.721-1.24,1.08-2.779,1.08-4.62
	c0-2.959-1.421-5.179-4.26-6.66c-2.841-1.479-6.941-2.859-12.3-4.14c-1.681-0.4-3.462-0.9-5.34-1.5
	c-1.881-0.6-3.621-1.479-5.221-2.641c-1.601-1.158-2.921-2.619-3.96-4.38c-1.04-1.759-1.56-3.96-1.56-6.6
	c0-2.88,0.559-5.341,1.68-7.38c1.119-2.041,2.619-3.721,4.5-5.041c1.879-1.319,4.021-2.298,6.42-2.939
	c2.4-0.639,4.879-0.96,7.44-0.96c3.919,0,7.719,0.882,11.399,2.64c3.679,1.762,6.439,4.242,8.28,7.44L636.602,469.348z"/>
<path fill="#FFFFFF" d="M669.96,434.428c0,1.68-0.6,3.059-1.8,4.139s-2.52,1.621-3.96,1.621s-2.76-0.541-3.96-1.621
	s-1.8-2.459-1.8-4.139c0-1.681,0.6-3.061,1.8-4.141s2.52-1.62,3.96-1.62s2.76,0.54,3.96,1.62S669.96,432.748,669.96,434.428z
	 M668.281,512.188h-8.16v-56.16h8.16V512.188z"/>
<path fill="#FFFFFF" d="M719.88,469.348c-1.199-2.32-3.021-4.219-5.46-5.701c-2.441-1.479-5.22-2.219-8.34-2.219
	c-1.439,0-2.88,0.16-4.32,0.479c-1.439,0.32-2.72,0.84-3.84,1.56c-1.121,0.721-2.021,1.641-2.7,2.76
	c-0.68,1.121-1.02,2.441-1.02,3.961c0,2.64,1.08,4.66,3.24,6.06c2.16,1.4,5.56,2.58,10.2,3.54
	c6.639,1.361,11.538,3.342,14.699,5.939c3.16,2.602,4.74,6.102,4.74,10.5c0,3.201-0.62,5.9-1.86,8.101
	c-1.241,2.201-2.86,4.001-4.859,5.399c-2.001,1.4-4.26,2.4-6.78,3c-2.52,0.601-5.061,0.9-7.62,0.9c-4.241,0-8.36-0.881-12.359-2.641
	c-4.002-1.758-7.281-4.518-9.841-8.279l6.48-4.8c1.44,2.48,3.559,4.56,6.36,6.239c2.799,1.681,5.88,2.521,9.239,2.521
	c1.759,0,3.439-0.159,5.04-0.479c1.6-0.319,3-0.88,4.2-1.681c1.2-0.798,2.16-1.818,2.88-3.06c0.721-1.24,1.08-2.779,1.08-4.62
	c0-2.959-1.421-5.179-4.26-6.66c-2.841-1.479-6.941-2.859-12.3-4.14c-1.681-0.4-3.462-0.9-5.34-1.5
	c-1.881-0.6-3.621-1.479-5.221-2.641c-1.601-1.158-2.921-2.619-3.96-4.38c-1.04-1.759-1.56-3.96-1.56-6.6
	c0-2.88,0.559-5.341,1.68-7.38c1.119-2.041,2.619-3.721,4.5-5.041c1.879-1.319,4.021-2.298,6.42-2.939
	c2.4-0.639,4.879-0.96,7.44-0.96c3.919,0,7.719,0.882,11.399,2.64c3.679,1.762,6.439,4.242,8.28,7.44L719.88,469.348z"/>
</svg>
